<svg width="35" height="32" viewBox="0 0 35 32" fill="none" xmlns="http://www.w3.org/2000/svg">
<path d="M31.7853 3.20448C29.9282 1.36402 27.4662 0.245045 24.8469 0.0510423C22.2275 -0.142961 19.6249 0.600896 17.5123 2.14734C15.2868 0.507271 12.5168 -0.236414 9.76003 0.0660437C7.00327 0.368501 4.46456 1.69463 2.65513 3.77739C0.845709 5.86015 -0.100022 8.54482 0.00838782 11.2908C0.116797 14.0367 1.27129 16.64 3.23939 18.5764L16.2705 31.4874C16.4331 31.6498 16.6265 31.7787 16.8397 31.8667C17.0528 31.9547 17.2814 32 17.5123 32C17.7433 32 17.9719 31.9547 18.185 31.8667C18.3982 31.7787 18.5916 31.6498 18.7542 31.4874L31.7853 18.5764C32.8044 17.5673 33.6129 16.3691 34.1645 15.0503C34.7161 13.7315 35 12.318 35 10.8904C35 9.46288 34.7161 8.04933 34.1645 6.73054C33.6129 5.41175 32.8044 4.21358 31.7853 3.20448ZM29.319 16.1328L17.5123 27.8134L5.70567 16.1328C4.66524 15.0977 3.95649 13.7812 3.66833 12.3485C3.38017 10.9158 3.52543 9.43067 4.08589 8.07946C4.64635 6.72824 5.59705 5.57108 6.81873 4.75315C8.04041 3.93521 9.47867 3.49292 10.9531 3.48176C12.9228 3.48654 14.8101 4.26567 16.2005 5.64804C16.3631 5.81047 16.5566 5.9394 16.7697 6.02738C16.9828 6.11537 17.2115 6.16066 17.4424 6.16066C17.6733 6.16066 17.9019 6.11537 18.1151 6.02738C18.3282 5.9394 18.5217 5.81047 18.6843 5.64804C20.1156 4.41912 21.9648 3.77489 23.8574 3.84574C25.7501 3.91658 27.5449 4.69721 28.8786 6.02963C30.2122 7.36205 30.9852 9.14673 31.041 11.0225C31.0968 12.8982 30.4313 14.7249 29.1791 16.1328H29.319Z" fill="#C8C4C0"/>
<path d="M29.319 16.1328L17.5123 27.8134L5.70567 16.1328C4.66524 15.0977 3.95649 13.7812 3.66833 12.3485C3.38017 10.9158 3.52543 9.43067 4.08589 8.07946C4.64635 6.72824 5.59705 5.57108 6.81873 4.75315C8.04041 3.93521 9.47867 3.49292 10.9531 3.48176C12.9228 3.48654 14.8101 4.26567 16.2005 5.64804C16.3631 5.81047 16.5566 5.9394 16.7697 6.02738C16.9828 6.11537 17.2115 6.16066 17.4424 6.16066C17.6733 6.16066 17.9019 6.11537 18.1151 6.02738C18.3282 5.9394 18.5217 5.81047 18.6843 5.64804C20.1156 4.41912 21.9648 3.77489 23.8574 3.84574C25.7501 3.91658 27.5449 4.69721 28.8786 6.02963C30.2122 7.36205 30.9852 9.14673 31.041 11.0225C31.0968 12.8982 30.4313 14.7249 29.1791 16.1328H29.319Z" fill="#C8C4C0"/>
</svg>
